<?xml version="1.0" encoding="utf-8"?>
<!-- Generator: Adobe Illustrator 21.0.0, SVG Export Plug-In . SVG Version: 6.00 Build 0)  -->
<svg version="1.1" id="Graphic" xmlns="http://www.w3.org/2000/svg" xmlns:xlink="http://www.w3.org/1999/xlink" x="0px" y="0px"
	 viewBox="0 0 1633 1394" style="enable-background:new 0 0 1633 1394;" xml:space="preserve">
<style type="text/css">
	.st0{fill-rule:evenodd;clip-rule:evenodd;}
</style>
<path class="st0" d="M936,0C768.817,0,615.389,58.871,495.294,157H0l51,465c0,0,1,5.248,2,9c1,3.748,2,6,2,6s2.403,2.849,1,6
	c-1.054,2.367,0,5,0,5s1.555,1.555,2,4c0.545,2.998,0,7,0,7s1.223,0.446,2,2c0.721,1.442,0,4,0,4s1.521,0.496,2,2
	c1.385,4.349,0,5,0,5s-1,1.051-1,3c0,3.852,1,10,1,10s1.51,0.774,2,2c0.509,1.273,0,3,0,3s-1,1.5-1,3c0,1.5,1,3,1,3s2.082,0.706,3,3
	c1.07,2.676,1,7,1,7h-2v6h-1c0,0-0.273,3.819-1,6c-0.772,2.315-2,3-2,3l44,399c0,0,8.076-1,16-1c4.687,0,11,1,11,1h9l52-6
	c0,0,3.387,0.516,7,0c3.38-0.483,7-2,7-2h10l11-1l8-2c0,0,4.801,0.262,9,0c3.779-0.236,7-1,7-1l52-7c0,0,7.272,0.083,13,0
	c4.938-0.072,7-1,7-1l4-4l18-1c0,0,1.794,0.277,3,1c1.291,0.775,2,2,2,2h6c0,0,0.964-1.237,3-2c0.886-0.332,1.989-0.567,2.934-0.726
	C489.886,1275.848,699.142,1394,936,1394c384.942,0,697-312.058,697-697S1320.942,0,936,0z"/>
</svg>
